<svg width="23" height="22" viewBox="0 0 23 22" fill="none" xmlns="http://www.w3.org/2000/svg">
                                            <path d="M11.5 0C5.43457 0 0.5 4.93457 0.5 11C0.5 17.0654 5.43457 22 11.5 22C17.5654 22 22.5 17.0654 22.5 11C22.5 4.93457 17.5654 0 11.5 0ZM11.5 20.9688C10.1406 20.9694 8.79553 20.6912 7.54789 20.1514C6.30026 19.6116 5.17657 18.8217 4.24627 17.8305C4.68621 16.2447 5.63373 14.8467 6.94379 13.8506C8.25384 12.8545 9.85424 12.3152 11.5 12.3152C13.1457 12.3152 14.7461 12.8545 16.0562 13.8506C17.3662 14.8467 18.3137 16.2447 18.7537 17.8305C17.8234 18.8217 16.6997 19.6116 15.4521 20.1514C14.2045 20.6912 12.8594 20.9694 11.5 20.9688ZM19.5343 16.8942C19.0744 15.6395 18.3267 14.5101 17.3513 13.5967C16.376 12.6833 15.2 12.0113 13.9179 11.6346C14.7824 11.1073 15.4508 10.3118 15.8214 9.36947C16.1919 8.42709 16.2442 7.38942 15.9704 6.41455C15.6965 5.43968 15.1115 4.58105 14.3045 3.96946C13.4974 3.35788 12.5126 3.02687 11.5 3.02687C10.4874 3.02687 9.5025 3.35788 8.69545 3.96946C7.88839 4.58105 7.30338 5.43968 7.02953 6.41455C6.75568 7.38942 6.808 8.42709 7.17854 9.36947C7.54907 10.3118 8.21749 11.1073 9.08198 11.6346C7.79989 12.0113 6.62398 12.6833 5.64862 13.5967C4.67326 14.5101 3.92561 15.6395 3.4657 16.8941C2.20705 15.1869 1.52904 13.121 1.53125 11C1.53125 5.50322 6.00322 1.03125 11.5 1.03125C16.9968 1.03125 21.4688 5.50322 21.4688 11C21.471 13.1211 20.7929 15.1869 19.5343 16.8942ZM11.5 11.284C10.7856 11.284 10.0872 11.0721 9.49316 10.6752C8.89914 10.2783 8.43615 9.71415 8.16275 9.0541C7.88935 8.39406 7.81782 7.66776 7.9572 6.96706C8.09657 6.26636 8.4406 5.62273 8.94578 5.11755C9.45096 4.61237 10.0946 4.26834 10.7953 4.12897C11.496 3.98959 12.2223 4.06112 12.8823 4.33452C13.5424 4.60792 14.1065 5.07091 14.5034 5.66493C14.9004 6.25896 15.1122 6.95734 15.1122 7.67177C15.1111 8.62946 14.7302 9.54761 14.053 10.2248C13.3758 10.902 12.4577 11.2829 11.5 11.284Z" fill="#4A4A4A"/>
                                        </svg>