<svg width="30" height="30" viewBox="0 0 30 30" fill="none" xmlns="http://www.w3.org/2000/svg">
                                            <path d="M15 16.5776C14.7573 16.5776 14.5605 16.7743 14.5605 17.0171V22.2905C14.5605 22.5333 14.7573 22.73 15 22.73C15.2427 22.73 15.4395 22.5333 15.4395 22.2905V17.0171C15.4395 16.7743 15.2427 16.5776 15 16.5776Z" fill="#4A4A4A"/>
                                            <path d="M29.4727 17.4565C29.7154 17.4565 29.9121 17.2598 29.9121 17.017V3.71752C29.9121 2.9551 29.0532 2.44744 28.384 2.82379L28.0854 2.99172L26.6755 1.5591C26.5685 1.45041 26.4127 1.405 26.2641 1.43899C26.2068 1.45211 25.2615 1.67248 23.8923 2.19473V0.439376C23.8923 0.294181 23.8206 0.15836 23.7007 0.0765048C23.5808 -0.00529204 23.4282 -0.0226358 23.293 0.03004C19.1851 1.63457 17.0327 4.16318 15.9506 6.00186C15.5113 6.74828 15.2081 7.44098 15 8.02041C14.7919 7.44098 14.4887 6.74828 14.0494 6.00186C12.9673 4.16318 10.8149 1.63457 6.70699 0.03004C6.57182 -0.0226358 6.41918 -0.00535063 6.2993 0.0765048C6.17941 0.15836 6.1077 0.294239 6.1077 0.439376V2.19449C4.74146 1.67354 3.79658 1.45293 3.73582 1.43904C3.58705 1.40506 3.43143 1.45041 3.32443 1.55916L1.91455 2.99178L1.61596 2.82379C0.951445 2.45014 0.0878906 2.94977 0.0878906 3.71752V22.1865C0.0878906 22.5564 0.288164 22.8988 0.610547 23.0802L11.9387 29.4523C12.1854 29.5628 12.4952 29.6199 12.7556 29.5349C12.939 29.8145 13.2547 29.9999 13.6133 29.9999H16.3867C16.7453 29.9999 17.061 29.8145 17.2443 29.5349C17.5224 29.6233 17.7947 29.5958 18.0613 29.4523L29.3895 23.0802C29.7118 22.8988 29.9121 22.5564 29.9121 22.1865V19.8295C29.9121 19.2613 29.0331 19.2613 29.0331 19.8295V22.1865C29.0331 22.2394 29.0045 22.2883 28.9585 22.3142L17.6303 28.6863C17.5087 28.7272 17.436 28.6846 17.412 28.5586V10.3329C17.3958 10.2452 17.3927 10.0149 17.4867 9.96197L28.8148 3.5899C28.9364 3.549 29.0092 3.59154 29.0331 3.71758V17.0171C29.0332 17.2597 29.2299 17.4565 29.4727 17.4565ZM23.0134 1.0958V2.5494C22.5983 2.72623 22.1586 2.92686 21.7037 3.1535C20.0989 3.95283 18.0918 5.19373 16.4162 6.97481C16.5055 6.80313 16.6023 6.62711 16.708 6.44764C17.6662 4.81955 19.5283 2.61039 23.0134 1.0958ZM16.5332 13.3045H13.4668V12.2303H16.5332V13.3045ZM13.4668 14.1834H16.5332V25.1239H13.4668V14.1834ZM13.4668 26.0028H16.5332V27.0771H13.4668V26.0028ZM16.5332 11.3514H13.4668V10.3328C13.4668 10.252 13.5325 10.1863 13.6133 10.1863H16.3867C16.4674 10.1863 16.5332 10.252 16.5332 10.3328V11.3514ZM3.77396 2.35533C4.41299 2.5259 6.27627 3.07533 8.35787 4.17256C8.84285 4.42815 9.26918 3.6594 8.76768 3.39502C8.14471 3.06666 7.54377 2.7867 6.98654 2.54928V1.0958C10.4518 2.60166 12.3101 4.79389 13.2693 6.40938C13.3814 6.59816 13.4836 6.78326 13.5776 6.96391C12.8876 6.22973 12.0974 5.53979 11.2089 4.89977C10.748 4.56754 10.2342 5.28074 10.6952 5.61285C12.2126 6.70598 13.4261 7.94647 14.3129 9.30754C13.8028 9.26576 13.3665 9.43363 12.944 9.19598L2.70832 3.43826L3.77396 2.35533ZM12.5153 28.6851C12.4668 28.6859 12.4182 28.6863 12.3696 28.6863L1.04145 22.3142C0.995391 22.2883 0.966738 22.2394 0.966738 22.1865V3.71752C0.966738 3.60045 1.09611 3.53992 1.18506 3.58984L12.5132 9.96186C12.6072 10.0149 12.604 10.245 12.5879 10.3328V28.5586C12.5879 28.6317 12.5424 28.6692 12.5153 28.6851ZM16.5332 28.9745C16.5332 29.0553 16.4674 29.121 16.3867 29.121H13.6133C13.5325 29.121 13.4668 29.0553 13.4668 28.9745V27.956H16.5332V28.9745ZM17.0558 9.19586C16.6256 9.43791 16.2073 9.27156 15.6877 9.30742C17.4085 6.67141 20.0713 4.95092 22.0758 3.95002C23.9737 3.00233 25.6308 2.51453 26.226 2.35539L27.2916 3.4382L17.0558 9.19586Z" fill="#4A4A4A"/>
                                            <path d="M27.1064 7.67402L18.9029 12.3615C18.7661 12.4397 18.6815 12.5853 18.6815 12.7431V15.5762C18.6815 15.9077 19.0511 16.1223 19.339 15.9577L27.5424 11.2702C27.6794 11.192 27.7638 11.0464 27.7638 10.8887V8.05558C27.7638 7.74779 27.4098 7.50053 27.1064 7.67402ZM26.8849 10.6336L19.5604 14.8188V12.9981L26.8849 8.81279V10.6336Z" fill="#4A4A4A"/>
                                        </svg>   