<svg xmlns="http://www.w3.org/2000/svg" viewBox="0 0 64 63.64"><title>male employee protection</title><g id="Layer_2" data-name="Layer 2"><g id="male_employee_protection" data-name="male employee protection"><path d="M63.63,41a1,1,0,0,0-.63-.77L52.08,36.12a1,1,0,0,0-.71,0l-5,1.9a23.43,23.43,0,0,0-8.79-4.81,13.57,13.57,0,0,0,4.23-9.54v-8.3c0-6.66-4-12-10.6-14.35C26.08-.79,20.9-.14,18.43,2.57c-5.72,1.21-8.29,7.77-8.22,11.92l.06,3.64v5.54a13.61,13.61,0,0,0,4.25,9.55C5,36.42.2,42.72,0,52.41a1,1,0,0,0,.67,1,77.78,77.78,0,0,0,21.8,3.93l.19,0h.07q1.75.07,3.5.07c1.19,0,2.38,0,3.56-.09l.11,0,.16,0a82.85,82.85,0,0,0,12.16-1.42,18.41,18.41,0,0,0,3.64,4.28,27,27,0,0,0,5.44,3.4,1,1,0,0,0,.81,0,27.05,27.05,0,0,0,5.44-3.4C62.82,55.6,64.92,49,63.63,41ZM19.12,4.47a1,1,0,0,0,.61-.36c1.78-2.23,6.43-2.75,10.82-1.21,2.17.76,9.26,3.91,9.26,12.47v1.75H28.34c-4.28,0-5.32-1.35-7.46-4.67A1,1,0,0,0,20,12h0a1,1,0,0,0-.84.46l-.74,1.17c-1.72,2.76-2.18,3.5-4.87,3.5H12.25l0-2.66C12.15,11.39,14.13,5.32,19.12,4.47Zm-6.86,19.2V19.12h1.32c3.73,0,4.75-1.52,6.48-4.29,1.9,2.75,3.68,4.29,8.28,4.29H39.81v4.56c0,3.77-2.19,7.49-5.85,9.93A14.19,14.19,0,0,1,26,36.07C18.83,36,12.26,30.11,12.26,23.67Zm4,11.09a16.86,16.86,0,0,0,4.82,2.49l1.49,4L19.71,51a1,1,0,0,0,0,.65l1.41,3.56A75.55,75.55,0,0,1,2,51.73C2.45,43,7.13,37.48,16.29,34.76Zm7.06,20.58-1.62-4.08,2.89-9.71a1,1,0,0,0,0-.63l-1.14-3.1a16,16,0,0,0,2.57.24h.1a15,15,0,0,0,2.88-.3l-1,3.21a1,1,0,0,0,0,.54l2.54,9.54-1.41,4.27Q26.26,55.44,23.34,55.34Zm8-.1,1.26-3.82a1,1,0,0,0,0-.57l-2.55-9.56,1.23-4.13a17,17,0,0,0,3.79-1.89l.69-.49a23.09,23.09,0,0,1,8.47,4.05l-3.79,1.44a1,1,0,0,0-.63.78,22.14,22.14,0,0,0,1.43,13A80.77,80.77,0,0,1,31.32,55.24Zm24.93,3.4a26.22,26.22,0,0,1-4.54,2.9,26.24,26.24,0,0,1-4.54-2.9,16.46,16.46,0,0,1-3.63-4.42h0c-1.9-3.4-2.52-7.51-1.85-12.28l4.83-1.83h0l5.18-2,10,3.8C62.75,49,60.9,54.62,56.26,58.64Z"/><path d="M56,45.7,50.8,52l-2.35-2.27a1,1,0,0,0-1.39,1.44l3.13,3a1,1,0,0,0,.69.28h.05a1,1,0,0,0,.71-.36L57.55,47A1,1,0,1,0,56,45.7Z"/></g></g></svg>