<svg xmlns="http://www.w3.org/2000/svg" width="30" height="30" viewBox="0 0 30 30" fill="none">
                                            <g clip-path="url(#clip0_3120_4800)">
                                              <path d="M14.9858 7.28027C12.7364 7.28027 10.9062 9.11039 10.9062 11.3599C11.1113 16.7646 18.8611 16.7631 19.0654 11.3598C19.0654 9.11039 17.2353 7.28027 14.9858 7.28027ZM15.4253 14.5305V14.09C15.4051 13.5081 14.5664 13.5086 14.5464 14.09V14.5305C13.1324 14.3355 12.0103 13.2134 11.8153 11.7994H12.2558C12.8377 11.7792 12.8372 10.9404 12.2558 10.9205H11.8153C12.3966 7.26211 17.5765 7.26469 18.1565 10.9205H17.716C17.1341 10.9406 17.1345 11.7794 17.716 11.7994H18.1565C17.9614 13.2133 16.8393 14.3355 15.4253 14.5305Z" fill="#4A4A4A"/>
                                              <path d="M14.9869 9.68628C14.7442 9.68628 14.5474 9.88304 14.5474 10.1257V10.9204H14.3698C13.7879 10.9405 13.7884 11.7793 14.3698 11.7993H14.9869C15.2296 11.7993 15.4263 11.6025 15.4263 11.3598V10.1257C15.4263 9.88304 15.2296 9.68628 14.9869 9.68628Z" fill="#4A4A4A"/>
                                              <path d="M4.06445 17.2595H5.88455C6.12725 17.2595 6.324 17.0627 6.324 16.82V13.1799C6.324 12.9372 6.12725 12.7405 5.88455 12.7405H4.06445C3.82176 12.7405 3.625 12.9372 3.625 13.1799V16.82C3.625 17.0627 3.82176 17.2595 4.06445 17.2595ZM4.50391 13.6194H5.4451V16.3806H4.50391V13.6194Z" fill="#4A4A4A"/>
                                              <path d="M7.70508 17.2594C7.94777 17.2594 8.14453 17.0627 8.14453 16.82V13.1799C8.12437 12.598 7.28561 12.5985 7.26562 13.1799V16.82C7.26562 17.0627 7.46238 17.2594 7.70508 17.2594Z" fill="#4A4A4A"/>
                                              <path d="M4.06445 22.7197H5.88455C6.12725 22.7197 6.324 22.523 6.324 22.2803V18.6401C6.324 18.3974 6.12725 18.2007 5.88455 18.2007H4.06445C3.82176 18.2007 3.625 18.3974 3.625 18.6401V22.2803C3.625 22.523 3.82176 22.7197 4.06445 22.7197ZM4.50391 19.0796H5.4451V21.8408H4.50391V19.0796Z" fill="#4A4A4A"/>
                                              <path d="M7.70508 22.7197C7.94777 22.7197 8.14453 22.5229 8.14453 22.2802V18.6401C8.12437 18.0582 7.28561 18.0587 7.26562 18.6401V22.2802C7.26562 22.5229 7.46238 22.7197 7.70508 22.7197Z" fill="#4A4A4A"/>
                                              <path d="M4.06445 28.1797H5.88455C6.12725 28.1797 6.324 27.9829 6.324 27.7402V24.1001C6.324 23.8574 6.12725 23.6606 5.88455 23.6606H4.06445C3.82176 23.6606 3.625 23.8574 3.625 24.1001V27.7402C3.625 27.9829 3.82176 28.1797 4.06445 28.1797ZM4.50391 24.5396H5.4451V27.3008H4.50391V24.5396Z" fill="#4A4A4A"/>
                                              <path d="M7.70508 28.1797C7.94777 28.1797 8.14453 27.9829 8.14453 27.7402V24.1001C8.12437 23.5182 7.28561 23.5186 7.26562 24.1001V27.7402C7.26562 27.9829 7.46238 28.1797 7.70508 28.1797Z" fill="#4A4A4A"/>
                                              <path d="M26.3435 13.1799C26.3435 12.9372 26.1468 12.7405 25.9041 12.7405H24.084C23.8413 12.7405 23.6445 12.9372 23.6445 13.1799V16.82C23.6445 17.0627 23.8413 17.2595 24.084 17.2595H25.9041C26.1468 17.2595 26.3435 17.0627 26.3435 16.82V13.1799ZM25.4646 16.3806H24.5235V13.6194H25.4647L25.4646 16.3806Z" fill="#4A4A4A"/>
                                              <path d="M22.7031 13.1799C22.683 12.598 21.8442 12.5985 21.8242 13.1799V16.82C21.8444 17.4019 22.6831 17.4014 22.7031 16.82V13.1799Z" fill="#4A4A4A"/>
                                              <path d="M26.3435 18.6401C26.3435 18.3974 26.1468 18.2007 25.9041 18.2007H24.084C23.8413 18.2007 23.6445 18.3974 23.6445 18.6401V22.2803C23.6445 22.523 23.8413 22.7197 24.084 22.7197H25.9041C26.1468 22.7197 26.3435 22.523 26.3435 22.2803V18.6401ZM25.4646 21.8408H24.5235V19.0795H25.4647L25.4646 21.8408Z" fill="#4A4A4A"/>
                                              <path d="M22.7031 18.6401C22.683 18.0582 21.8442 18.0587 21.8242 18.6401V22.2802C21.8444 22.8621 22.6831 22.8617 22.7031 22.2802V18.6401Z" fill="#4A4A4A"/>
                                              <path d="M25.9041 23.6609H24.084C23.8413 23.6609 23.6445 23.8576 23.6445 24.1003V27.7405C23.6445 27.9832 23.8413 28.1799 24.084 28.1799H25.9041C26.1468 28.1799 26.3435 27.9832 26.3435 27.7405V24.1003C26.3435 23.8576 26.1468 23.6609 25.9041 23.6609ZM25.4646 27.301H24.5235V24.5397H25.4647L25.4646 27.301Z" fill="#4A4A4A"/>
                                              <path d="M22.2637 23.6609C22.021 23.6609 21.8242 23.8576 21.8242 24.1003V27.7405C21.8444 28.3224 22.6831 28.3219 22.7031 27.7405V24.1003C22.7031 23.8576 22.5064 23.6609 22.2637 23.6609Z" fill="#4A4A4A"/>
                                              <path d="M29.0288 11.1633L28.1188 9.34323C28.0443 9.19434 27.8922 9.1003 27.7257 9.1003H20.8849V5.89961C20.8849 5.65692 20.6881 5.46016 20.4454 5.46016H19.0646V3.18303L20.006 2.86926V3.16956C20.006 3.9137 20.6114 4.51903 21.3555 4.51903C21.5982 4.51903 21.7949 4.32227 21.7949 4.07958C21.7949 3.83688 21.5982 3.64012 21.3555 3.64012C21.096 3.64012 20.8849 3.42901 20.8849 3.16956V2.25948C20.8849 2.06659 20.7552 1.89514 20.5754 1.83959L15.1242 0.0225439C15.034 -0.00751465 14.9365 -0.00751465 14.8463 0.0225439L9.38611 1.84264C8.89147 2.03606 8.89147 2.47551 9.38611 2.67649L10.9059 3.18309V5.46022H9.5251C9.2824 5.46022 9.08565 5.65698 9.08565 5.89967V9.10018H6.84244C6.59975 9.10018 6.40299 9.29694 6.40299 9.53963C6.40299 9.78233 6.59975 9.97909 6.84244 9.97909H9.08541V10.9204L2.04555 10.9206L2.51617 9.97897H4.92754C5.17024 9.97897 5.36699 9.78221 5.36699 9.53952C5.36699 9.29682 5.17024 9.10006 4.92754 9.10006H2.24453C2.07807 9.10006 1.92584 9.19411 1.85143 9.34299L0.941467 11.1635C0.836115 11.5216 0.967131 11.7336 1.33457 11.7995H1.80537V29.5604C1.80537 29.8031 2.00213 29.9998 2.24483 29.9998L27.726 30C27.9687 30 28.1654 29.8032 28.1654 29.5605V21.4177C28.1654 21.175 27.9687 20.9782 27.726 20.9782C27.4833 20.9782 27.2865 21.175 27.2865 21.4177V29.1211H20.8851V11.7995H27.2865V19.5023C27.2865 19.745 27.4833 19.9418 27.726 19.9418C27.9687 19.9418 28.1654 19.745 28.1654 19.5023V11.7992H28.6357C29.0185 11.7992 29.209 11.5429 29.0288 11.1633ZM9.08565 29.121H2.68428V11.7995H9.08559V29.121H9.08565ZM14.9853 0.902681L19.0558 2.25954L14.9853 3.61633L10.9148 2.25954L14.9853 0.902681ZM18.1857 3.476V5.46016H11.7848V3.476L14.8463 4.49647C14.9389 4.52653 15.0316 4.52653 15.1242 4.49647L18.1857 3.476ZM17.2757 29.121H15.4247V22.7197H17.2757V29.121ZM20.006 29.121H18.1546V22.2802C18.1546 22.0375 17.9579 21.8407 17.7152 21.8407H14.9898C14.9867 21.8407 14.9838 21.8407 14.9807 21.8407H12.2553C12.0126 21.8407 11.8159 22.0375 11.8159 22.2802V24.7956C11.836 25.3775 12.6748 25.3771 12.6948 24.7956V22.7197H14.5458V29.121H12.6948V26.7111C12.6746 26.1292 11.8359 26.1297 11.8159 26.7111V29.121H9.96449V6.33907H20.0059V29.121H20.006ZM20.8849 10.9203V9.9792H27.4541L27.9246 10.9203H20.8849Z" fill="#4A4A4A"/>
                                              <path d="M13.1658 16.3806H11.3457C11.103 16.3806 10.9062 16.5774 10.9062 16.8201V20.4602C10.9062 20.7029 11.103 20.8997 11.3457 20.8997H13.1658C13.4085 20.8997 13.6053 20.7029 13.6053 20.4602V16.8201C13.6053 16.5774 13.4085 16.3806 13.1658 16.3806ZM12.7263 20.0208H11.7852V17.2595H12.7263V20.0208Z" fill="#4A4A4A"/>
                                              <path d="M18.6267 16.3806H16.8066C16.5639 16.3806 16.3672 16.5774 16.3672 16.8201V20.4602C16.3672 20.7029 16.5639 20.8997 16.8066 20.8997H18.6267C18.8694 20.8997 19.0662 20.7029 19.0662 20.4602V16.8201C19.0662 16.5774 18.8694 16.3806 18.6267 16.3806ZM18.1873 20.0208H17.2461V17.2595H18.1873V20.0208Z" fill="#4A4A4A"/>
                                              <path d="M14.9863 16.3806C14.7436 16.3806 14.5469 16.5774 14.5469 16.8201V20.4602C14.567 21.0421 15.4058 21.0416 15.4258 20.4602V16.8201C15.4258 16.5774 15.229 16.3806 14.9863 16.3806Z" fill="#4A4A4A"/>
                                            </g>
                                            <defs>
                                              <clipPath id="clip0_3120_4800">
                                                <rect width="30" height="30" fill="white"/>
                                              </clipPath>
                                            </defs>
                                        </svg>